<svg width="1920" height="1080" viewBox="0 0 1920 1080" xmlns="http://www.w3.org/2000/svg"><rect width="1920" height="1080" fill="#df6688"/><path d="M 0,1080 C 0,1080 0,154 0,154 C 95.9666666666667,116.36410256410255 191.9333333333334,78.72820512820512 291,96 C 390.0666666666666,113.27179487179488 492.23333333333323,185.45128205128205 606,204 C 719.7666666666668,222.54871794871795 845.1333333333334,187.4666666666667 954,155 C 1062.8666666666666,122.53333333333332 1155.2333333333333,92.68205128205128 1247,106 C 1338.7666666666667,119.31794871794872 1429.9333333333332,175.80512820512823 1542,191 C 1654.0666666666668,206.19487179487177 1787.0333333333333,180.0974358974359 1920,154 C 1920,154 1920,1080 1920,1080 Z" fill="#3d1053" opacity="0.08571428571428572"/><path d="M 0,1080 C 0,1080 0,308 0,308 C 93.03589743589745,303.3871794871795 186.0717948717949,298.77435897435896 297,289 C 407.9282051282051,279.22564102564104 536.7487179487177,264.2897435897436 648,278 C 759.2512820512823,291.7102564102564 852.9333333333336,334.0666666666667 968,330 C 1083.0666666666664,325.9333333333333 1219.5179487179487,275.44358974358977 1330,267 C 1440.4820512820513,258.55641025641023 1524.9948717948719,292.1589743589743 1619,306 C 1713.0051282051281,319.8410256410257 1816.502564102564,313.92051282051284 1920,308 C 1920,308 1920,1080 1920,1080 Z" fill="#3d1053" opacity="0.17142857142857143"/><path d="M 0,1080 C 0,1080 0,462 0,462 C 110.81025641025639,480.7615384615385 221.62051282051277,499.523076923077 337,498 C 452.3794871794872,496.476923076923 572.3282051282052,474.6692307692307 673,475 C 773.6717948717948,475.3307692307693 855.0666666666666,497.80000000000007 940,485 C 1024.9333333333334,472.19999999999993 1113.4051282051282,424.13076923076915 1223,410 C 1332.5948717948718,395.86923076923085 1463.3128205128205,415.6769230769231 1583,430 C 1702.6871794871795,444.3230769230769 1811.3435897435897,453.16153846153844 1920,462 C 1920,462 1920,1080 1920,1080 Z" fill="#3d1053" opacity="0.2571428571428571"/><path d="M 0,1080 C 0,1080 0,617 0,617 C 100.40512820512822,619.7743589743591 200.81025641025644,622.548717948718 300,616 C 399.18974358974356,609.451282051282 497.16410256410256,593.5794871794872 617,594 C 736.8358974358974,594.4205128205128 878.5333333333333,611.1333333333332 1000,628 C 1121.4666666666667,644.8666666666668 1222.7025641025639,661.8871794871795 1314,657 C 1405.2974358974361,652.1128205128205 1486.6564102564103,625.3179487179488 1586,615 C 1685.3435897435897,604.6820512820512 1802.6717948717949,610.8410256410257 1920,617 C 1920,617 1920,1080 1920,1080 Z" fill="#3d1053" opacity="0.34285714285714286"/><path d="M 0,1080 C 0,1080 0,771 0,771 C 132.425641025641,785.6307692307693 264.851282051282,800.2615384615385 348,808 C 431.148717948718,815.7384615384615 465.02051282051286,816.5846153846153 584,816 C 702.9794871794871,815.4153846153847 907.0666666666668,813.4 1015,802 C 1122.9333333333332,790.6 1134.7128205128204,769.8153846153847 1235,776 C 1335.2871794871796,782.1846153846153 1524.0820512820515,815.3384615384615 1653,819 C 1781.9179487179485,822.6615384615385 1850.9589743589743,796.8307692307692 1920,771 C 1920,771 1920,1080 1920,1080 Z" fill="#3d1053" opacity="0.4285714285714286"/><path d="M 0,1080 C 0,1080 0,925 0,925 C 81.1076923076923,927.6974358974359 162.2153846153846,930.3948717948717 286,921 C 409.7846153846154,911.6051282051283 576.2461538461538,890.1179487179487 698,887 C 819.7538461538462,883.8820512820513 896.8,899.1333333333333 996,907 C 1095.2,914.8666666666667 1216.553846153846,915.348717948718 1308,914 C 1399.446153846154,912.651282051282 1460.9846153846154,909.4717948717948 1558,911 C 1655.0153846153846,912.5282051282052 1787.5076923076922,918.7641025641026 1920,925 C 1920,925 1920,1080 1920,1080 Z" fill="#3d1053" opacity="0.5142857142857142"/><path d="M 0,1080 C 0,1080 0,1079 0,1079 C 116.8692307692308,1090.5333333333333 233.7384615384616,1102.0666666666668 326,1110 C 418.2615384615384,1117.9333333333332 485.9153846153846,1122.2666666666667 586,1114 C 686.0846153846154,1105.7333333333333 818.6000000000001,1084.8666666666666 940,1074 C 1061.3999999999999,1063.1333333333334 1171.6846153846152,1062.2666666666669 1282,1064 C 1392.3153846153848,1065.7333333333331 1502.6615384615384,1070.0666666666666 1609,1073 C 1715.3384615384616,1075.9333333333334 1817.6692307692308,1077.4666666666667 1920,1079 C 1920,1079 1920,1080 1920,1080 Z" fill="#3d1053" opacity="0.6"/></svg>